<svg xmlns="http://www.w3.org/2000/svg">
	<symbol id="tv" viewBox="0 0 640 512">
		<path d="M512 448H127.1C110.3 448 96 462.3 96 479.1S110.3 512 127.1 512h384C529.7 512 544 497.7 544 480S529.7 448 512 448zM592 0h-544C21.5 0 0 21.5 0 48v320C0 394.5 21.5 416 48 416h544c26.5 0 48-21.5 48-48v-320C640 21.5 618.5 0 592 0zM576 352H64v-288h512V352z"/>
	</symbol>
	<symbol id="serial" viewBox="0 0 512 512">
		<path d="M463.1 32h-416C21.49 32-.0001 53.49-.0001 80v352c0 26.51 21.49 48 47.1 48h416c26.51 0 48-21.49 48-48v-352C511.1 53.49 490.5 32 463.1 32zM111.1 408c0 4.418-3.582 8-8 8H55.1c-4.418 0-8-3.582-8-8v-48c0-4.418 3.582-8 8-8h47.1c4.418 0 8 3.582 8 8L111.1 408zM111.1 280c0 4.418-3.582 8-8 8H55.1c-4.418 0-8-3.582-8-8v-48c0-4.418 3.582-8 8-8h47.1c4.418 0 8 3.582 8 8V280zM111.1 152c0 4.418-3.582 8-8 8H55.1c-4.418 0-8-3.582-8-8v-48c0-4.418 3.582-8 8-8h47.1c4.418 0 8 3.582 8 8L111.1 152zM351.1 400c0 8.836-7.164 16-16 16H175.1c-8.836 0-16-7.164-16-16v-96c0-8.838 7.164-16 16-16h160c8.836 0 16 7.162 16 16V400zM351.1 208c0 8.836-7.164 16-16 16H175.1c-8.836 0-16-7.164-16-16v-96c0-8.838 7.164-16 16-16h160c8.836 0 16 7.162 16 16V208zM463.1 408c0 4.418-3.582 8-8 8h-47.1c-4.418 0-7.1-3.582-7.1-8l0-48c0-4.418 3.582-8 8-8h47.1c4.418 0 8 3.582 8 8V408zM463.1 280c0 4.418-3.582 8-8 8h-47.1c-4.418 0-8-3.582-8-8v-48c0-4.418 3.582-8 8-8h47.1c4.418 0 8 3.582 8 8V280zM463.1 152c0 4.418-3.582 8-8 8h-47.1c-4.418 0-8-3.582-8-8l0-48c0-4.418 3.582-8 7.1-8h47.1c4.418 0 8 3.582 8 8V152z"/>
	</symbol>
	<symbol id="loupe" viewBox="0 0 512 512">
		<path d="M500.3 443.7l-119.7-119.7c27.22-40.41 40.65-90.9 33.46-144.7C401.8 87.79 326.8 13.32 235.2 1.723C99.01-15.51-15.51 99.01 1.724 235.2c11.6 91.64 86.08 166.7 177.6 178.9c53.8 7.189 104.3-6.236 144.7-33.46l119.7 119.7c15.62 15.62 40.95 15.62 56.57 0C515.9 484.7 515.9 459.3 500.3 443.7zM79.1 208c0-70.58 57.42-128 128-128s128 57.42 128 128c0 70.58-57.42 128-128 128S79.1 278.6 79.1 208z"/>
	</symbol>
	<symbol id="profile" viewBox="0 0 448 512">
		<path d="M224 256c70.7 0 128-57.31 128-128s-57.3-128-128-128C153.3 0 96 57.31 96 128S153.3 256 224 256zM274.7 304H173.3C77.61 304 0 381.6 0 477.3c0 19.14 15.52 34.67 34.66 34.67h378.7C432.5 512 448 496.5 448 477.3C448 381.6 370.4 304 274.7 304z"/>
	</symbol>
	<symbol id="star" viewBox="0 0 576 512">
		<path d="M287.9 0C297.1 0 305.5 5.25 309.5 13.52L378.1 154.8L531.4 177.5C540.4 178.8 547.8 185.1 550.7 193.7C553.5 202.4 551.2 211.9 544.8 218.2L433.6 328.4L459.9 483.9C461.4 492.9 457.7 502.1 450.2 507.4C442.8 512.7 432.1 513.4 424.9 509.1L287.9 435.9L150.1 509.1C142.9 513.4 133.1 512.7 125.6 507.4C118.2 502.1 114.5 492.9 115.1 483.9L142.2 328.4L31.11 218.2C24.65 211.9 22.36 202.4 25.2 193.7C28.03 185.1 35.5 178.8 44.49 177.5L197.7 154.8L266.3 13.52C270.4 5.249 278.7 0 287.9 0L287.9 0zM287.9 78.95L235.4 187.2C231.9 194.3 225.1 199.3 217.3 200.5L98.98 217.9L184.9 303C190.4 308.5 192.9 316.4 191.6 324.1L171.4 443.7L276.6 387.5C283.7 383.7 292.2 383.7 299.2 387.5L404.4 443.7L384.2 324.1C382.9 316.4 385.5 308.5 391 303L476.9 217.9L358.6 200.5C350.7 199.3 343.9 194.3 340.5 187.2L287.9 78.95z"/>
	</symbol>
	<symbol id="star-full" viewBox="0 0 576 512">
		<path d="M381.2 150.3L524.9 171.5C536.8 173.2 546.8 181.6 550.6 193.1C554.4 204.7 551.3 217.3 542.7 225.9L438.5 328.1L463.1 474.7C465.1 486.7 460.2 498.9 450.2 506C440.3 513.1 427.2 514 416.5 508.3L288.1 439.8L159.8 508.3C149 514 135.9 513.1 126 506C116.1 498.9 111.1 486.7 113.2 474.7L137.8 328.1L33.58 225.9C24.97 217.3 21.91 204.7 25.69 193.1C29.46 181.6 39.43 173.2 51.42 171.5L195 150.3L259.4 17.97C264.7 6.954 275.9-.0391 288.1-.0391C300.4-.0391 311.6 6.954 316.9 17.97L381.2 150.3z"/>
	</symbol>
	<symbol id="star-half" viewBox="0 0 576 512">
		<path d="M378.1 154.8L531.4 177.5C540.4 178.8 547.8 185.1 550.7 193.7C553.5 202.4 551.2 211.9 544.8 218.2L433.6 328.4L459.9 483.9C461.4 492.9 457.7 502.1 450.2 507.4C442.8 512.7 432.1 513.4 424.9 509.1L287.9 435.9L150.1 509.1C142.9 513.4 133.1 512.7 125.6 507.4C118.2 502.1 114.5 492.9 115.1 483.9L142.2 328.4L31.11 218.2C24.65 211.9 22.36 202.4 25.2 193.7C28.03 185.1 35.5 178.8 44.49 177.5L197.7 154.8L266.3 13.52C270.4 5.249 278.7 0 287.9 0C297.1 0 305.5 5.25 309.5 13.52L378.1 154.8zM287.1 384.7C291.9 384.7 295.7 385.6 299.2 387.5L404.4 443.7L384.2 324.1C382.9 316.4 385.5 308.5 391 303L476.9 217.9L358.6 200.5C350.7 199.3 343.9 194.3 340.5 187.2L287.1 79.09L287.1 384.7z"/>
	</symbol>
	<symbol id="play" viewBox="0 0 512 512">
		<path d="M188.3 147.1C195.8 142.8 205.1 142.1 212.5 147.5L356.5 235.5C363.6 239.9 368 247.6 368 256C368 264.4 363.6 272.1 356.5 276.5L212.5 364.5C205.1 369 195.8 369.2 188.3 364.9C180.7 360.7 176 352.7 176 344V167.1C176 159.3 180.7 151.3 188.3 147.1V147.1zM512 256C512 397.4 397.4 512 256 512C114.6 512 0 397.4 0 256C0 114.6 114.6 0 256 0C397.4 0 512 114.6 512 256zM256 48C141.1 48 48 141.1 48 256C48 370.9 141.1 464 256 464C370.9 464 464 370.9 464 256C464 141.1 370.9 48 256 48z"/>
	</symbol>
	<symbol id="roomLock" viewBox="0 0 448 512">
		<path d="M80 192V144C80 64.47 144.5 0 224 0C303.5 0 368 64.47 368 144V192H384C419.3 192 448 220.7 448 256V448C448 483.3 419.3 512 384 512H64C28.65 512 0 483.3 0 448V256C0 220.7 28.65 192 64 192H80zM144 192H304V144C304 99.82 268.2 64 224 64C179.8 64 144 99.82 144 144V192z"/>
	</symbol>
	<symbol id="roomUnlock" viewBox="0 0 448 512">
		<path d="M144 192H384C419.3 192 448 220.7 448 256V448C448 483.3 419.3 512 384 512H64C28.65 512 0 483.3 0 448V256C0 220.7 28.65 192 64 192H80V144C80 64.47 144.5 0 224 0C281.5 0 331 33.69 354.1 82.27C361.7 98.23 354.9 117.3 338.1 124.9C322.1 132.5 303.9 125.7 296.3 109.7C283.4 82.63 255.9 64 224 64C179.8 64 144 99.82 144 144L144 192z"/>
	</symbol>
	<symbol id="roomJoin" viewBox="0 0 512 512">
		<path d="M344.7 238.5l-144.1-136C193.7 95.97 183.4 94.17 174.6 97.95C165.8 101.8 160.1 110.4 160.1 120V192H32.02C14.33 192 0 206.3 0 224v64c0 17.68 14.33 32 32.02 32h128.1v72c0 9.578 5.707 18.25 14.51 22.05c8.803 3.781 19.03 1.984 26-4.594l144.1-136C354.3 264.4 354.3 247.6 344.7 238.5zM416 32h-64c-17.67 0-32 14.33-32 32s14.33 32 32 32h64c17.67 0 32 14.33 32 32v256c0 17.67-14.33 32-32 32h-64c-17.67 0-32 14.33-32 32s14.33 32 32 32h64c53.02 0 96-42.98 96-96V128C512 74.98 469 32 416 32z"/>
	</symbol>
	<symbol id="roomOut" viewBox="0 0 512 512">
		<path d="M96 480h64C177.7 480 192 465.7 192 448S177.7 416 160 416H96c-17.67 0-32-14.33-32-32V128c0-17.67 14.33-32 32-32h64C177.7 96 192 81.67 192 64S177.7 32 160 32H96C42.98 32 0 74.98 0 128v256C0 437 42.98 480 96 480zM504.8 238.5l-144.1-136c-6.975-6.578-17.2-8.375-26-4.594c-8.803 3.797-14.51 12.47-14.51 22.05l-.0918 72l-128-.001c-17.69 0-32.02 14.33-32.02 32v64c0 17.67 14.34 32 32.02 32l128 .001l.0918 71.1c0 9.578 5.707 18.25 14.51 22.05c8.803 3.781 19.03 1.984 26-4.594l144.1-136C514.4 264.4 514.4 247.6 504.8 238.5z"/>
	</symbol>
	<symbol id="key" viewBox="0 0 512 512">
		<path d="M282.3 343.7L248.1 376.1C244.5 381.5 238.4 384 232 384H192V424C192 437.3 181.3 448 168 448H128V488C128 501.3 117.3 512 104 512H24C10.75 512 0 501.3 0 488V408C0 401.6 2.529 395.5 7.029 391L168.3 229.7C162.9 212.8 160 194.7 160 176C160 78.8 238.8 0 336 0C433.2 0 512 78.8 512 176C512 273.2 433.2 352 336 352C317.3 352 299.2 349.1 282.3 343.7zM376 176C398.1 176 416 158.1 416 136C416 113.9 398.1 96 376 96C353.9 96 336 113.9 336 136C336 158.1 353.9 176 376 176z"/>
	</symbol>
</svg>
